<svg xmlns="http://www.w3.org/2000/svg" xml:space="preserve" viewBox="0 0 507.2 507.2"><path d="M345.8 473.2h52v28h-52zM101.8 473.2h52v28h-52zM225.8 149.2h52v28h-52zM37.8 462.4c0 3.2 4.4 6.8 8 6.8h176c3.2 0 4-3.6 4-6.8v-9.2h-188v9.2z" style="fill:#f4efef"/><path d="M221.8 329.2h-176c-3.2 0-8 2-8 5.2v114.8h188V334.4c0-3.2-.8-5.2-4-5.2zM345.8 5.2h-176c-3.2 0-8 2-8 5.2v114.8h188V10.4c0-3.2-.8-5.2-4-5.2z" style="fill:#cdeef9"/><path d="M161.8 138.4c0 3.2 4.4 6.8 8 6.8h176c3.2 0 4-3.6 4-6.8v-9.2h-188v9.2z" style="fill:#f4efef"/><path d="M465.8 329.2h-176c-3.2 0-8 2-8 5.2v114.8h188V334.4c0-3.2-.8-5.2-4-5.2z" style="fill:#cdeef9"/><path d="M281.8 453.2v9.2c0 3.2 4.4 6.8 8 6.8h176c3.2 0 4-3.6 4-6.8v-9.2h-188z" style="fill:#f4efef"/><path d="M269.4 252c0-7.6-6.4-14-14-14s-14 6.4-14 14 6.4 14 14 14c8 0 14-6.4 14-14z" style="fill:#7d8b95"/><path d="M219.4 475.6H44.2c-6.8 0-12-5.2-12-12V336c0-6.8 5.2-12 12-12h175.2c6.8 0 12 5.2 12 12v127.6c0 6.8-5.6 12-12 12zM43.8 332c-2.4 0-4 1.6-4 4v127.6c0 2.4 1.6 4 4 4H219c2.4 0 4-1.6 4-4V336c0-2.4-1.6-4-4-4H43.8z"/><path d="M225.8 455.2h-188c-2.4 0-4-1.6-4-4s1.6-4 4-4h188c2.4 0 4 1.6 4 4s-1.6 4-4 4zM165.8 507.2h-76c-2.4 0-4-1.6-4-4s1.6-4 4-4h76c2.4 0 4 1.6 4 4s-1.6 4-4 4z"/><path d="M99.8 505.2c-2.4 0-4-1.6-4-4v-28c0-2.4 1.6-4 4-4s4 1.6 4 4v28c0 2.4-1.6 4-4 4zM155.8 505.2c-2.4 0-4-1.6-4-4v-28c0-2.4 1.6-4 4-4s4 1.6 4 4v28c0 2.4-1.6 4-4 4zM127.8 464c-1.2 0-2-.4-2.8-1.2-.8-.8-1.2-2-1.2-2.8 0-1.2.4-2 1.2-2.8 1.6-1.6 4-1.6 5.6 0 .8.8 1.2 1.6 1.2 2.8 0 1.2-.4 2-1.2 2.8-.8.8-1.6 1.2-2.8 1.2zM343.4 151.6H168.2c-6.8 0-12-5.2-12-12V12c0-6.8 5.2-12 12-12h175.2c6.8 0 12 5.2 12 12v127.6c0 6.8-5.6 12-12 12zM167.8 8c-2.4 0-4 1.6-4 4v127.6c0 2.4 1.6 4 4 4H343c2.4 0 4-1.6 4-4V12c0-2.4-1.6-4-4-4H167.8z"/><path d="M349.8 131.2h-188c-2.4 0-4-1.6-4-4s1.6-4 4-4h188c2.4 0 4 1.6 4 4s-1.6 4-4 4zM289.8 183.2h-76c-2.4 0-4-1.6-4-4s1.6-4 4-4h76c2.4 0 4 1.6 4 4s-1.6 4-4 4z"/><path d="M223.8 181.2c-2.4 0-4-1.6-4-4v-28c0-2.4 1.6-4 4-4s4 1.6 4 4v28c0 2.4-1.6 4-4 4zM279.8 181.2c-2.4 0-4-1.6-4-4v-28c0-2.4 1.6-4 4-4s4 1.6 4 4v28c0 2.4-1.6 4-4 4zM253.8 140c-1.2 0-2-.4-2.8-1.2-.8-.8-1.2-1.6-1.2-2.8 0-1.2.4-2 1.2-2.8 1.6-1.6 4-1.6 5.6 0 .8.8 1.2 1.6 1.2 2.8 0 1.2-.4 2-1.2 2.8-.8.8-1.6 1.2-2.8 1.2zM463 475.6H287.8c-6.8 0-12-5.2-12-12V336c0-6.8 5.2-12 12-12H463c6.8 0 12 5.2 12 12v127.6c0 6.8-5.2 12-12 12zM287.8 332c-2.4 0-4 1.6-4 4v127.6c0 2.4 1.6 4 4 4H463c2.4 0 4-1.6 4-4V336c0-2.4-1.6-4-4-4H287.8z"/><path d="M469.8 455.2h-188c-2.4 0-4-1.6-4-4s1.6-4 4-4h188c2.4 0 4 1.6 4 4s-1.6 4-4 4zM409.8 507.2h-76c-2.4 0-4-1.6-4-4s1.6-4 4-4h76c2.4 0 4 1.6 4 4s-1.6 4-4 4z"/><path d="M343.8 505.2c-2.4 0-4-1.6-4-4v-28c0-2.4 1.6-4 4-4s4 1.6 4 4v28c0 2.4-1.6 4-4 4zM399.8 505.2c-2.4 0-4-1.6-4-4v-28c0-2.4 1.6-4 4-4s4 1.6 4 4v28c0 2.4-1.6 4-4 4zM371.8 464c-1.2 0-2-.4-2.8-1.2-.8-.8-1.2-2-1.2-2.8 0-1.2.4-2 1.2-2.8 1.6-1.6 4-1.6 5.6 0 .8.8 1.2 1.6 1.2 2.8 0 1.2-.4 2-1.2 2.8-.8.8-1.6 1.2-2.8 1.2zM255.8 272c-11.2 0-20-8.8-20-20s8.8-20 20-20 20 8.8 20 20c-.4 10.8-9.2 20-20 20zm0-32c-6.8 0-12 5.2-12 12s5.2 12 12 12 12-5.2 12-12c-.4-6.8-5.6-12-12-12z"/><path d="M127.8 313.2c-2.4 0-4-1.6-4-4V268c0-10.8 12-16.8 24-16.8h90c2.4 0 4 1.6 4 4s-1.6 4-4 4h-90c-6.4 0-16 2.8-16 8.8v41.2c0 2.4-1.6 4-4 4zM375.8 313.2c-2.4 0-4-1.6-4-4V268c0-6.8-2-8.8-8.4-8.8h-89.6c-2.4 0-4-1.6-4-4s1.6-4 4-4h89.6c10.8 0 16.4 5.6 16.4 16.8v41.2c0 2.4-1.6 4-4 4zM255.8 237.2c-2.4 0-4-1.6-4-4v-36c0-2.4 1.6-4 4-4s4 1.6 4 4v36c0 2.4-1.6 4-4 4z"/></svg>