<svg xmlns="http://www.w3.org/2000/svg" xml:space="preserve" id="Layer_1" width="800" height="800" version="1.1" viewBox="0 0 512 512"><style>.st2{fill:#ededed}.st4{fill:#333}.st5{fill:#7c8b8e}.st6{fill:#d3d8d9}.st7{fill:#a8b1b3}</style><path d="M4 371.9v34.5c0 8.6 6.9 15.5 15.5 15.5h472.9c8.6 0 15.6-6.9 15.6-15.5v-34.5H4z" style="fill:#d3d9d9"/><path d="M455.2 421.9h37.3c8.5 0 15.4-6.9 15.4-15.4v-34.6h-37.2v34.6c0 8.5-6.9 15.4-15.5 15.4z" style="fill:#a8b2b4"/><path d="M56.8 421.9H19.4C10.9 421.9 4 415 4 406.5v-34.6h37.2v34.6c0 8.5 6.9 15.4 15.6 15.4z" class="st2"/><path d="M508 49.8v322.1H4V49.8c0-8.5 6.9-15.5 15.4-15.5h472.9c8.6 0 15.7 7 15.7 15.5z" style="fill:#d3f0fd"/><path d="M492.4 30.3H19.5C8.8 30.3 0 39 0 49.8v356.6c0 10.8 8.8 19.5 19.5 19.5H200l-21.6 47.8h-13.1c-2.2 0-4 1.8-4 4s1.8 4 4 4h181.6c2.2 0 4-1.8 4-4s-1.8-4-4-4h-13.1L312 425.9h180.4c10.8 0 19.6-8.8 19.6-19.5V49.8c0-10.8-8.8-19.5-19.6-19.5zM324.8 473.7H187.1l21.6-47.8h94.4l21.7 47.8zM504 406.4c0 6.3-5.2 11.5-11.6 11.5H19.5c-6.3 0-11.5-5.2-11.5-11.5v-30.5h496v30.5zm0-38.5H8V49.8c0-6.4 5.1-11.5 11.4-11.5h472.9c6.4 0 11.6 5.2 11.6 11.5v318.1z" class="st4"/><path d="M238.6 396.9c0 4-3.2 7.1-7.1 7.1-3.9 0-7.1-3.2-7.1-7.1 0-3.9 3.2-7.1 7.1-7.1 3.9 0 7.1 3.2 7.1 7.1zM263.1 396.9c0 4-3.2 7.1-7.1 7.1-3.9 0-7.1-3.2-7.1-7.1 0-3.9 3.2-7.1 7.1-7.1 3.9 0 7.1 3.2 7.1 7.1zM287.7 396.9c0 4-3.2 7.1-7.1 7.1-3.9 0-7.1-3.2-7.1-7.1 0-3.9 3.2-7.1 7.1-7.1 3.9 0 7.1 3.2 7.1 7.1z" class="st5"/><path d="M381.9 147.9c-19.5 19.5-51.1 19.5-70.7 0-19.5-19.5-19.5-51.2 0-70.7 13.8-13.8 33.6-17.8 50.9-12.1l-37 37 6.6 25.3L357 134l37-37c5.7 17.2 1.7 37.1-12.1 50.9z" class="st6"/><path d="m362.2 65.1-6.6 6.6c-12.8 0-25.5 4.9-35.2 14.6-18 18-19.4 46.3-4.2 65.8-1.7-1.3-3.3-2.7-4.9-4.3-19.5-19.5-19.5-51.1 0-70.7 13.7-13.7 33.6-17.7 50.9-12z" class="st2"/><path d="M381.9 147.9c-19.5 19.5-51.1 19.5-70.7 0-1.5-1.5-3-3.1-4.2-4.8 19.6 15.1 47.8 13.7 65.8-4.3 9.7-9.7 14.6-22.5 14.6-35.2L394 97c5.7 17.2 1.7 37.1-12.1 50.9z" class="st7"/><path d="M130.1 258.3c19.5-19.5 51.1-19.5 70.7 0 19.5 19.5 19.5 51.2 0 70.7-13.8 13.8-33.6 17.8-50.9 12.1l37-37-6.6-25.3-25.3-6.6-37 37c-5.7-17.3-1.7-37.1 12.1-50.9z" class="st6"/><path d="m149.9 341.1 6.6-6.6c12.8 0 25.5-4.9 35.2-14.6 18-18 19.4-46.3 4.2-65.8 1.7 1.3 3.3 2.7 4.9 4.3 19.5 19.5 19.5 51.1 0 70.7-13.8 13.7-33.6 17.7-50.9 12z" class="st7"/><path d="M130.1 258.3c19.5-19.5 51.1-19.5 70.7 0 1.5 1.5 3 3.1 4.2 4.8-19.6-15.1-47.8-13.7-65.8 4.3-9.7 9.7-14.6 22.5-14.6 35.2l-6.6 6.6c-5.7-17.3-1.6-37.1 12.1-50.9z" class="st2"/><path d="M272.3 219.3c-19.3 19.3-39.6 37.8-60.6 55.2-2.4-5.9-6.1-11.4-10.8-16.2-4.8-4.8-10.3-8.4-16.2-10.8 17.5-21.1 35.9-41.3 55.2-60.6 19.3-19.3 39.5-37.7 60.6-55.2 2.5 5.9 6.1 11.4 10.9 16.2 4.8 4.8 10.3 8.4 16.2 10.8-17.6 21.1-36 41.3-55.3 60.6z" class="st7"/><path d="M327.5 158.7c-17.5 21.1-35.9 41.3-55.2 60.6-19.3 19.3-39.5 37.8-60.6 55.2-1.5-3.6-3.4-7.1-5.8-10.3 20.2-16.8 39.6-34.6 58.1-53.2 18.5-18.5 36.3-37.9 53.2-58.1 3.2 2.4 6.7 4.3 10.3 5.8z" style="fill:#7c8b8d"/><path d="M300.4 131.7c1.5 3.6 3.4 7 5.8 10.3-20.2 16.9-39.6 34.6-58.1 53.2s-36.3 38-53.2 58.1c-3.2-2.4-6.7-4.3-10.3-5.8 17.5-21.1 35.9-41.3 55.2-60.6 19.3-19.4 39.5-37.8 60.6-55.2z" class="st6"/><path d="m165.801 132.009 18.95-18.95 110.096 110.095-18.95 18.95z" class="st6"/><path d="m165.87 131.975 18.95-18.95 10.749 10.747-18.95 18.95z" class="st2"/><path d="m265.155 231.308 18.95-18.95 10.748 10.748-18.95 18.95z" class="st7"/><path d="m184.8 113-19 19-10.1-7.1-16.4-11.4-13.6-21.6 19-19 21.6 13.6 11.4 16.4z" class="st6"/><path d="M154.8 79.3 132.1 102l-6.4-10.1 19-19z" class="st2"/><path d="m184.8 113-19 19-10.1-7.1 22-22z" class="st7"/><path d="m268.4 261.3 72.3 72.3c12.1 12.1 31.8 13.5 44.7 2.3 7.4-6.5 11.1-15.4 11.1-24.4 0-8.3-3.2-16.6-9.5-22.8l-73-73c-3.2-3.2-8.5-3.2-11.7 0l-33.9 33.9c-3.2 3.2-3.2 8.4 0 11.7z" style="fill:#fb8a8a"/><path d="M382.9 337.7c.8-.6 1.7-1.3 2.5-1.9 7.4-6.5 11.1-15.4 11.1-24.4 0-8.3-3.2-16.6-9.5-22.8l-73-73c-3.2-3.2-8.5-3.2-11.7 0l-7.6 7.6c3.2-3.2 8.5-3.2 11.7 0l73 73c6.3 6.3 9.4 14.6 9.5 22.8 0 6.6-2 13.2-6 18.7z" style="fill:#fcb1b1"/><path d="m268.4 261.3 72.3 72.3c12.1 12.1 31.8 13.5 44.7 2.3 2-1.7 3.7-3.6 5.1-5.7-12.9 9.1-30.9 7.1-42.2-4.2L276 253.7c-3.2-3.2-3.2-8.5 0-11.7l-7.6 7.6c-3.2 3.2-3.2 8.4 0 11.7z" style="fill:#f96363"/><path d="M316.9 212.8c-4.8-4.8-12.6-4.8-17.4 0l-4.7 4.7-7.7-7.7c14.4-15 28.3-30.5 41.6-46.4 20.1 7.1 41.6 1.7 56-12.7 14.5-14.5 19.5-35.6 13.1-55-.4-1.3-1.5-2.3-2.9-2.6-1.3-.3-2.8.1-3.8 1.1l-35.4 35.4-20.8-5.4-5.4-20.8L365 67.9c1-1 1.4-2.4 1.1-3.7-.3-1.4-1.3-2.4-2.6-2.9-19.5-6.4-40.5-1.4-55 13.1-15.1 15.1-19.3 37-12.6 56-15.9 13.2-31.4 27.2-46.4 41.6L188 110.5l-18.4-26.3c-.3-.4-.7-.8-1.2-1.1l-21.6-13.6c-1.6-1-3.6-.8-5 .6l-19 19c-1.3 1.3-1.6 3.4-.6 5l13.6 21.6c.3.4.6.8 1.1 1.1l26.2 18.3 61.5 61.5c-14.4 15-28.3 30.4-41.5 46.2-20.1-7.3-41.9-1.5-56 12.7-14.5 14.5-19.5 35.6-13.1 55 .4 1.3 1.5 2.3 2.9 2.6 1.3.3 2.8-.1 3.8-1.1l35.4-35.4 20.8 5.4 5.4 20.8-35.3 35.5c-1 1-1.4 2.4-1.1 3.8.3 1.4 1.3 2.4 2.6 2.9 5.6 1.8 11.3 2.8 17 2.8 14 0 27.7-5.5 38-15.8 15.1-15.1 19.3-37 12.7-56 15.8-13.2 31.2-27.1 46.2-41.5l7.7 7.7-4.7 4.7c-4.8 4.8-4.8 12.6 0 17.4l72.3 72.3c13.8 13.8 35.8 14.9 50.2 2.4 15.9-13.9 16.8-38.2 1.9-53.1l-72.9-73.1zM314.1 80c8.8-8.8 20.4-13.5 32.4-13.5 2.6 0 5.3.2 7.9.7l-32 32c-1 1-1.4 2.5-1 3.8l6.6 25.3c.4 1.4 1.5 2.5 2.9 2.9l25.2 6.6c1.4.3 2.8 0 3.8-1l32-32c2.6 14.6-2.1 29.6-12.8 40.3-17.9 17.9-47.1 17.9-65 0s-17.9-47.1 0-65.1zM299 138c2.5 4.7 5.6 8.9 9.4 12.7 3.8 3.8 8 6.9 12.6 9.4-12.6 15-25.9 29.7-39.6 43.9l-26.5-26.5c14.4-13.6 29.1-26.9 44.1-39.5zm-156.7-27.3-11.5-18.2L145.3 78l18.2 11.4 16.1 23.1-14.2 14.2-23.1-16zM198 326.1c-10.7 10.7-25.7 15.4-40.3 12.8l32-32c1-1 1.4-2.5 1-3.8l-6.6-25.3c-.4-1.4-1.5-2.5-2.9-2.9l-25.2-6.6c-1.4-.4-2.8 0-3.8 1l-32 32c-2.6-14.6 2.1-29.6 12.8-40.3 17.7-17.7 46.7-18.3 65 0 17.9 18.1 17.9 47.2 0 65.1zm15-57.9c-2.5-4.7-5.6-8.9-9.4-12.7-3.8-3.8-8-6.9-12.6-9.4 12.6-15 25.8-29.6 39.5-43.8l26.4 26.4c-14.2 13.6-28.9 26.9-43.9 39.5zM171.5 132l13.3-13.3 104.4 104.4-13.3 13.3L171.5 132zm211.3 200.8c-11.2 9.7-28.4 8.8-39.3-2.1l-72.3-72.3c-.8-.8-1.3-1.9-1.3-3s.4-2.2 1.3-3l33.9-33.9c.8-.8 1.9-1.3 3-1.3s2.2.4 3 1.3l73 73c11.8 11.6 11 30.5-1.3 41.3z" class="st4"/><path d="m371.3 308.9-64.5-64.5c-1.6-1.6-1.6-4.1 0-5.7s4.1-1.6 5.7 0l64.5 64.5c1.6 1.6 1.6 4.1 0 5.7-1.6 1.6-4.1 1.6-5.7 0zM355.5 323.5l-63.9-63.9c-1.6-1.6-1.6-4.1 0-5.7s4.1-1.6 5.7 0l63.9 63.9c1.6 1.6 1.6 4.1 0 5.7-1.6 1.6-4.2 1.6-5.7 0z" class="st4"/></svg>